# AST/ASF file generated using VICON BodyLanguage
# -----------------------------------------------
:version 1.10
:name VICON
:units
  mass 1.0
  length 0.45
  angle deg
:documentation
   .ast/.asf automatically generated from VICON data using
   VICON BodyBuilder and BodyLanguage model FoxedUp or BRILLIANT.MOD
:root
   order TX TY TZ RX RY RZ
   axis XYZ
   position 0 0 0  
   orientation 0 0 0 
:bonedata
  begin
     id 1 
     name lhipjoint
     direction 0.627457 -0.725269 0.283342 
     length 2.53237 
     axis 0 0 0  XYZ
  end
  begin
     id 2 
     name lfemur
     direction 0.34202 -0.939693 0  
     length 7.32496  
     axis 0 0 20  XYZ
    dof rx ry rz
    limits (-160.0 20.0)
           (-70.0 70.0)
           (-60.0 70.0)
  end
  begin
     id 3 
     name ltibia
     direction 0.34202 -0.939693 0   
     length 7.69674   
     axis 0 0 20   XYZ
    dof rx
    limits (-10.0 170.0)
  end
  begin
     id 4 
     name lfoot
     direction 0.127289 -0.349722 0.928166   
     length 1.8612   
     axis -90 7.62852e-016 20   XYZ
    dof rx rz
    limits (-45.0 90.0)
           (-70.0 20.0)
  end
  begin
     id 5 
     name ltoes
     direction 1.53561e-011 -4.21864e-011 1   
     length 0.925608   
     axis -90 7.62852e-016 20   XYZ
    dof rx
    limits (-90.0 20.0)
  end
  begin
     id 6 
     name rhipjoint
     direction -0.609094 -0.738725 0.288599   
     length 2.48624  
     axis 0 0 0  XYZ 
  end
  begin
     id 7 
     name rfemur
     direction -0.34202 -0.939693 0   
     length 7.44259   
     axis 0 0 -20   XYZ
    dof rx ry rz
    limits (-160.0 20.0)
           (-70.0 70.0)
           (-70.0 60.0)
  end
  begin
     id 8 
     name rtibia
     direction -0.34202 -0.939693 0   
     length 7.7781   
     axis 0 0 -20   XYZ
    dof rx
    limits (-10.0 170.0)
 end
 begin
     id 9 
     name rfoot
     direction -0.107015 -0.294021 0.949789   
     length 2.14741  
     axis -90 -7.62852e-016 -20   XYZ
    dof rx rz
    limits (-45.0 90.0)
           (-20.0 70.0)
  end
  begin
     id 10 
     name rtoes
     direction -1.53497e-011 -4.21924e-011 1   
     length 1.0706   
     axis -90 -7.62852e-016 -20   XYZ
    dof rx
    limits (-90.0 20.0)
  end
  begin
     id 11 
     name lowerback
     direction -0.0142066 0.998112 -0.0597545   
     length 1.86627   
     axis 0 0 0   XYZ
    dof rx ry rz
    limits (-20.0 45.0)
           (-30.0 30.0)
           (-30.0 30.0)
  end
  begin
     id 12 
     name upperback
     direction 0.00547294 0.999744 0.0219437   
     length 1.86272   
     axis 0 0 0   XYZ
    dof rx ry rz
    limits (-20.0 45.0)
           (-30.0 30.0)
           (-30.0 30.0)
  end
  begin
     id 13 
     name thorax
     direction 0.0116162 0.998704 0.0495538   
     length 1.8703   
     axis 0 0 0   XYZ
    dof rx ry rz
    limits (-20.0 45.0)
           (-30.0 30.0)
           (-30.0 30.0)
  end
  begin
     id 14 
     name lowerneck
     direction -0.0106574 0.998739 0.0490586   
     length 1.8074   
     axis 0 0 0   XYZ
    dof rx ry rz
    limits (-20.0 45.0)
           (-30.0 30.0)
           (-30.0 30.0)
  end
  begin
     id 15 
     name upperneck
     direction 0.030527 0.976587 -0.212944   
     length 1.80681   
     axis 0 0 0   XYZ
    dof rx ry rz
    limits (-20.0 45.0)
           (-30.0 30.0)
           (-30.0 30.0)
  end
  begin
     id 16
     name head
     direction 0.00869225 0.997035 -0.0764531  
     length 1.8313  
     axis 0 0 0   XYZ
    dof rx ry rz
    limits (-20.0 45.0)
           (-30.0 30.0)
           (-30.0 30.0)
  end
  begin
     id 17 
     name lclavicle
     direction 0.915958 0.399447 0.0382386  
     length 3.78965  
     axis 0 0 0   XYZ
    dof ry rz
    limits (-20.0 10.0)
           (0.0 20.0)
  end
  begin
     id 18 
     name lhumerus
     direction 1 -4.48967e-011 3.19303e-027   
     length 4.78095   
     axis -180 -30 -90   XYZ
    dof rx ry rz
    limits (-60.0 90.0)
           (-90.0 90.0)
           (-90.0 90.0)
  end
  begin
     id 19
     name lradius
     direction 1 -4.48967e-011 -3.77974e-027   
     length 3.58615   
     axis -180 -30 -90   XYZ
    dof rx
    limits (-10.0 170.0)
  end
  begin
     id 20
     name lwrist
     direction 1 -4.48927e-011 1.2807e-027   
     length 1.79307   
     axis 1.91374e-015 90 90   XYZ
    dof ry
    limits (-180.0 0.0)
 end
  begin
     id 21 
     name lhand
     direction 1 -4.49036e-011 2.5614e-027   
     length 0.659812   
     axis -1.63439e-015 90 90   XYZ
    dof rx rz
    limits (-90.0 90.0)
           (-45.0 45.0)
  end
  begin
     id 22 
     name lfingers
     direction 1 -4.49052e-011 5.1228e-027   
     length 0.531957   
     axis -3.26879e-015 90 90   XYZ
    dof rx
    limits (0.0 90.0)
  end
  begin
     id 23
     name lthumb
     direction 0.707107 -6.35012e-011 0.707107   
     length 0.763787   
     axis -90 45 2.85299e-015   XYZ
    dof rx rz
    limits (-45.0 45.0)
           (-45.0 45.0)
  end
  begin
     id 24 
     name rclavicle
     direction -0.895351 0.435135 0.0948887   
     length 3.70497  
     axis 0 0 0   XYZ 
    dof ry rz
    limits (-10.0 20.0)
           (-20.0 0.0)
  end
  begin
     id 25 
     name rhumerus
     direction -1 -4.48971e-011 2.38946e-027  
     length 4.48913   
     axis -180 30 90   XYZ
    dof rx ry rz
    limits (-90.0 60.0)
           (-90.0 90.0)
           (-90.0 90.0)
  end
  begin
     id 26 
     name rradius
     direction -1 -4.4895e-011 4.38668e-027   
     length 3.7051   
     axis -180 30 90   XYZ
    dof rx
    limits (-10.0 170.0)
  end
  begin
     id 27 
     name rwrist
     direction -1 -4.49007e-011 1.2807e-027   
     length 1.85255   
     axis 1.91374e-015 -90 -90   XYZ
    dof ry
    limits (-180.0 0.0)
  end
  begin
     id 28
     name rhand
     direction -1 -4.48851e-011 2.5614e-027   
     length 0.449136   
     axis -1.63439e-015 -90 -90   XYZ
    dof rx rz
    limits (-90.0 90.0)
           (-45.0 45.0)
  end
  begin
     id 29
     name rfingers
     direction -1 -4.49128e-011 5.1228e-027   
     length 0.362105   
     axis -3.26879e-015 -90 -90   XYZ
    dof rx
    limits (0.0 90.0)
  end
  begin
     id 30
     name rthumb
     direction -0.707107 -6.34851e-011 0.707107   
     length 0.519912   
     axis -90 -45 -2.85299e-015   XYZ
    dof rx rz
    limits (-45.0 45.0)
           (-45.0 45.0)
  end
:hierarchy
  begin
    root lhipjoint rhipjoint lowerback
    lhipjoint lfemur
    lfemur ltibia
    ltibia lfoot
    lfoot ltoes
    rhipjoint rfemur
    rfemur rtibia
    rtibia rfoot
    rfoot rtoes
    lowerback upperback
    upperback thorax
    thorax lowerneck lclavicle rclavicle
    lowerneck upperneck
    upperneck head
    lclavicle lhumerus
    lhumerus lradius
    lradius lwrist
    lwrist lhand lthumb
    lhand lfingers
    rclavicle rhumerus
    rhumerus rradius
    rradius rwrist
    rwrist rhand rthumb
    rhand rfingers
  end

#!OML:ASF I:\Actors\actors\Patient Classification 2\Patient 1\Session 1\actor1.ASF
:FULLY-SPECIFIED
:DEGREES
1
root -0.809381 18.6705 6.08532 2.04813 -0.762996 -3.07271
lowerback 9.57238 0.463122 0.76808
upperback -3.6238 0.750265 0.303856
thorax -9.23892 0.328318 -0.239403
lowerneck -9.39821 -1.81428 -1.1884
upperneck 20.1566 -2.9347 3.01963
head 7.82277 -1.20597 0.914975
rclavicle 3.90736e-015 -1.19271e-015
rhumerus -49.5736 -4.04853 -86.5262
rradius 42.8516
rwrist 16.4486
rhand -5.2531 -35.2982
rfingers 7.12502
rthumb 20.5502 -64.2305
lclavicle 3.90736e-015 -1.19271e-015
lhumerus -44.1696 2.77973 88.9399
lradius 38.711
lwrist -11.6821
lhand -3.93154 -27.4059
lfingers 7.12502
lthumb 21.8197 1.38406
rfemur 7.70318 4.43125 17.7515
rtibia 2.22639e-014
rfoot -18.9715 -12.2063
rtoes -9.26395
lfemur -5.98113 -3.93794 -10.7053
ltibia 23.9139
lfoot -23.266 12.562
ltoes -55.8924
2
root -0.809225 18.6693 6.08564 2.07104 -0.762167 -3.08551
lowerback 9.56354 0.467441 0.800028
upperback -3.62664 0.759441 0.294601
thorax -9.23624 0.330566 -0.268765
lowerneck -9.42536 -1.81793 -1.16472
upperneck 20.1699 -2.95115 3.05229
head 7.83271 -1.20852 0.919978
rclavicle 4.52856e-015 -9.93923e-015
rhumerus -49.5956 -4.13933 -86.4921
rradius 42.8058
rwrist 16.5381
rhand -5.24349 -35.15
rfingers 7.12502
rthumb 20.5595 -64.0813
lclavicle 4.52856e-015 -9.93923e-015
lhumerus -44.2217 2.53045 89.0122
lradius 38.7836
lwrist -11.3863
lhand -3.95535 -27.3813
lfingers 7.12502
lthumb 21.7968 1.41125
rfemur 7.68006 4.42999 17.7627
rtibia 6.36111e-015
rfoot -18.9935 -12.1722
rtoes -9.01086
lfemur -6.0012 -3.93886 -10.6893
ltibia 23.9154
lfoot -23.2792 12.5436
ltoes -55.8458
3
root -0.808249 18.6687 6.08512 2.09784 -0.784111 -3.06522
lowerback 9.55339 0.485364 0.804865
upperback -3.64011 0.782101 0.271296
thorax -9.24436 0.340382 -0.300208
lowerneck -9.42978 -1.83529 -1.16959
upperneck 20.2166 -2.99459 3.1414
head 7.85155 -1.22064 0.946018
rclavicle -1.7667e-014 -4.77083e-015
rhumerus -49.646 -4.2511 -86.4436
rradius 42.7778
rwrist 16.6659
rhand -5.19796 -35.0219
rfingers 7.12502
rthumb 20.6032 -63.9484
lclavicle -1.7667e-014 -4.77083e-015
lhumerus -44.2521 2.35416 89.1034
lradius 39.1756
lwrist -11.8065
lhand -3.57063 -26.0328
lfingers 7.12502
lthumb 22.1662 2.71636
rfemur 7.64304 4.45069 17.7315
rtibia 1.27222e-014
rfoot -18.969 -12.1611
rtoes -8.89827
lfemur -6.03026 -3.93844 -10.7169
ltibia 23.9163
lfoot -23.2827 12.5664
ltoes -55.8511
4
root -0.807244 18.6696 6.08447 2.13581 -0.79386 -3.04472
lowerback 9.54283 0.495774 0.790732
upperback -3.65312 0.794017 0.269382
thorax -9.25241 0.34686 -0.296316
lowerneck -9.4347 -1.85022 -1.17135
upperneck 20.2391 -3.01955 3.15957
head 7.86082 -1.23064 0.949885
rclavicle 1.57226e-014 -3.97569e-016
rhumerus -49.6947 -4.29027 -86.398
rradius 42.7992
rwrist 16.7281
rhand -5.20973 -35.0567
rfingers 7.12502
rthumb 20.5919 -63.9845
lclavicle 1.57226e-014 -3.97569e-016
lhumerus -44.1454 2.70814 88.9526
lradius 39.2077
lwrist -12.3673
lhand -3.31317 -25.7277
lfingers 7.12502
lthumb 22.4134 2.99189
rfemur 7.59509 4.45873 17.6997
rtibia -7.95139e-015
rfoot -18.9619 -12.1543
rtoes -8.76886
lfemur -6.07961 -3.92687 -10.7432
ltibia 23.92
lfoot -23.2637 12.5857
ltoes -55.892
5
root -0.807381 18.6703 6.08458 2.16525 -0.762972 -3.0296
lowerback 9.52001 0.48991 0.767539
upperback -3.63983 0.783811 0.282159
thorax -9.22505 0.343914 -0.267571
lowerneck -9.4649 -1.84665 -1.17559
upperneck 20.2082 -3.00582 3.12715
head 7.85526 -1.22744 0.940931
rclavicle 6.76489e-015 -7.95139e-015
rhumerus -49.674 -4.27387 -86.3672
rradius 42.8154
rwrist 16.7342
rhand -5.17133 -35.2059
rfingers 7.12502
rthumb 20.6288 -64.1297
lclavicle 6.76489e-015 -7.95139e-015
lhumerus -44.0432 2.94543 88.8605
lradius 39.1657
lwrist -12.5985
lhand -3.27521 -25.7696
lfingers 7.12502
lthumb 22.4498 2.94561
rfemur 7.57157 4.42611 17.682
rtibia -1.27222e-014
rfoot -18.987 -12.131
rtoes -8.54798
lfemur -6.124 -3.89016 -10.7503
ltibia 23.9223
lfoot -23.2209 12.5512
ltoes -55.9294
6
root -0.806631 18.6703 6.08408 2.17038 -0.735419 -3.00579
lowerback 9.53632 0.476617 0.742022
upperback -3.62463 0.763361 0.29057
thorax -9.21864 0.33586 -0.240799
lowerneck -9.50632 -1.82863 -1.20214
upperneck 20.1857 -2.976 3.13117
head 7.855 -1.21465 0.949202
rclavicle 7.27428e-015 -7.95139e-016
rhumerus -49.6346 -4.20411 -86.3523
rradius 42.7891
rwrist 16.7168
rhand -5.15393 -35.2889
rfingers 7.12502
rthumb 20.6455 -64.2109
lclavicle 7.27428e-015 -7.95139e-016
lhumerus -43.987 2.97554 88.8665
lradius 39.1657
lwrist -12.5969
lhand -3.26964 -25.6603
lfingers 7.12502
lthumb 22.4552 3.05429
rfemur 7.57057 4.39785 17.6501
rtibia -2.38542e-014
rfoot -19.0376 -12.0999
rtoes -8.29018
lfemur -6.13912 -3.87841 -10.7722
ltibia 23.9253
lfoot -23.2059 12.5196
ltoes -55.9541
7
root -0.805805 18.6698 6.08284 2.16123 -0.722529 -2.99856
lowerback 9.56084 0.469088 0.731081
upperback -3.60649 0.752694 0.299638
thorax -9.21358 0.331696 -0.223292
lowerneck -9.5152 -1.80942 -1.23075
upperneck 20.1563 -2.9491 3.15943
head 7.84706 -1.20152 0.965801
rclavicle 6.84565e-015 3.97569e-016
rhumerus -49.5994 -4.17524 -86.3215
rradius 42.7338
rwrist 16.7548
rhand -5.1938 -35.1475
rfingers 7.12502
rthumb 20.6072 -64.0737
lclavicle 6.84565e-015 3.97569e-016
lhumerus -43.927 2.97881 88.8828
lradius 39.1602
lwrist -12.5984
lhand -3.24347 -25.5968
lfingers 7.12502
lthumb 22.4803 3.11475
rfemur 7.57991 4.38562 17.6335
rtibia 1.11319e-014
rfoot -19.0654 -12.0591
rtoes -8.07074
lfemur -6.13233 -3.90442 -10.7844
ltibia 23.9269
lfoot -23.2227 12.5183
ltoes -55.9502
8
root -0.806044 18.6694 6.08175 2.15998 -0.723152 -3.00563
lowerback 9.54745 0.477977 0.727865
upperback -3.58045 0.764704 0.309859
thorax -9.17736 0.338274 -0.212423
lowerneck -9.47882 -1.8 -1.24203
upperneck 20.0925 -2.93543 3.17648
head 7.81941 -1.19524 0.974849
rclavicle -3.78933e-016 4.37326e-015
rhumerus -49.5522 -4.21776 -86.2784
rradius 42.6976
rwrist 16.7881
rhand -5.18163 -35.0978
rfingers 7.12502
rthumb 20.6189 -64.0226
lclavicle -3.78933e-016 4.37326e-015
lhumerus -43.8641 2.93954 88.9167
lradius 39.1658
lwrist -12.5993
lhand -3.22882 -25.628
lfingers 7.12502
lthumb 22.4943 3.08185
rfemur 7.57974 4.38654 17.6416
rtibia 3.18055e-015
rfoot -19.0423 -12.0602
rtoes -8.16202
lfemur -6.13564 -3.90141 -10.7781
ltibia 23.9314
lfoot -23.2026 12.5384
ltoes -56.0043
9
root -0.806193 18.6696 6.08025 2.17044 -0.730229 -3.01717
lowerback 9.53966 0.488759 0.740363
upperback -3.56621 0.781082 0.315263
thorax -9.15703 0.345784 -0.21639
lowerneck -9.45788 -1.80001 -1.22336
upperneck 20.054 -2.937 3.17432
head 7.80262 -1.19537 0.970984
rclavicle -6.37975e-015 0
rhumerus -49.5129 -4.23274 -86.2557
rradius 42.6946
rwrist 16.7344
rhand -5.14321 -35.2155
rfingers 7.12502
rthumb 20.6558 -64.1364
lclavicle -6.37975e-015 0
lhumerus -43.8286 2.88457 88.9538
lradius 39.189
lwrist -12.5318
lhand -3.21429 -25.6347
lfingers 7.12502
lthumb 22.5083 3.07343
rfemur 7.55832 4.39337 17.6612
rtibia 6.36111e-015
rfoot -19.0374 -12.108
rtoes -8.4241
lfemur -6.15591 -3.87925 -10.7627
ltibia 23.9398
lfoot -23.1751 12.5475
ltoes -56.0607
10
root -0.80641 18.6701 6.07775 2.17604 -0.728755 -3.04471
lowerback 9.55641 0.488966 0.764659
upperback -3.55973 0.785922 0.329243
thorax -9.15966 0.347174 -0.216162
lowerneck -9.42621 -1.80332 -1.1925
upperneck 20.013 -2.93912 3.14231
head 7.78244 -1.19782 0.95528
rclavicle 8.82107e-016 -5.56597e-015
rhumerus -49.4762 -4.20596 -86.2438
rradius 42.6816
rwrist 16.6856
rhand -5.12301 -35.1496
rfingers 7.12502
rthumb 20.6752 -64.0683
lclavicle 8.82107e-016 -5.56597e-015
lhumerus -43.8117 2.85448 88.9884
lradius 39.2263
lwrist -12.4615
lhand -3.20935 -25.5885
lfingers 7.12502
lthumb 22.513 3.11904
rfemur 7.53894 4.39267 17.695
rtibia -3.49861e-014
rfoot -19.0456 -12.1316
rtoes -8.59002
lfemur -6.1751 -3.8597 -10.7242
ltibia 23.948
lfoot -23.1668 12.5205
ltoes -56.0543
11
root -0.806632 18.6699 6.07521 2.17811 -0.736246 -3.0772
lowerback 9.56604 0.488008 0.78115
upperback -3.54931 0.788662 0.350286
thorax -9.15402 0.348295 -0.203568
lowerneck -9.37558 -1.8005 -1.18506
upperneck 19.9594 -2.92702 3.10451
head 7.75456 -1.19611 0.943105
rclavicle 1.29521e-014 -2.78299e-015
rhumerus -49.4324 -4.16254 -86.2403
rradius 42.6695
rwrist 16.6518
rhand -5.11084 -35.0833
rfingers 7.12502
rthumb 20.6869 -64.0008
lclavicle 1.29521e-014 -2.78299e-015
lhumerus -43.7983 2.82384 89.0288
lradius 39.279
lwrist -12.4033
lhand -3.20529 -25.5424
lfingers 7.12502
lthumb 22.5169 3.16471
rfemur 7.52544 4.40143 17.7293
rtibia 6.36111e-015
rfoot -19.0263 -12.1266
rtoes -8.61321
lfemur -6.19522 -3.80632 -10.6801
ltibia 23.9598
lfoot -23.1522 12.4835
ltoes -56.0914
12
root -0.80644 18.6696 6.07333 2.17215 -0.741003 -3.08016
lowerback 9.58131 0.484488 0.776036
upperback -3.53472 0.784047 0.35899
thorax -9.14729 0.346704 -0.190712
lowerneck -9.36705 -1.78964 -1.17315
upperneck 19.9388 -2.90359 3.05712
head 7.74474 -1.18877 0.927805
rclavicle -1.82571e-014 -1.98785e-015
rhumerus -49.3943 -4.12057 -86.2407
rradius 42.6875
rwrist 16.6378
rhand -5.10765 -35.1443
rfingers 7.12502
rthumb 20.69 -64.0614
lclavicle -1.82571e-014 -1.98785e-015
lhumerus -43.7928 2.79719 89.0576
lradius 39.3325
lwrist -12.3611
lhand -3.20729 -25.5254
lfingers 7.12502
lthumb 22.515 3.18195
rfemur 7.5273 4.40648 17.735
rtibia 4.77083e-015
rfoot -19.0093 -12.1399
rtoes -8.68682
lfemur -6.20566 -3.77036 -10.676
ltibia 23.9724
lfoot -23.1404 12.4768
ltoes -56.1092
